<?xml version="1.0" encoding="UTF-8"?>
<!DOCTYPE svg PUBLIC "-//W3C//DTD SVG 1.1//EN" "http://www.w3.org/Graphics/SVG/1.1/DTD/svg11.dtd">
<!-- Creator: CorelDRAW 2020 (64 Bit) -->
<svg xmlns="http://www.w3.org/2000/svg" xml:space="preserve" width="369.428mm" height="147.913mm" version="1.1" style="shape-rendering:geometricPrecision; text-rendering:geometricPrecision; image-rendering:optimizeQuality; fill-rule:evenodd; clip-rule:evenodd"
viewBox="0 0 36937.04 14789.03"
 xmlns:xlink="http://www.w3.org/1999/xlink"
 xmlns:xodm="http://www.corel.com/coreldraw/odm/2003">
 <defs>
  <style type="text/css">
   <![CDATA[
    .fil0 {fill:#0077E6;fill-rule:nonzero;fill-opacity:0.431373}
    .fil1 {fill:#DCDEE2;fill-rule:nonzero;fill-opacity:0.541176}
    .fil2 {fill:url(#id0);fill-rule:nonzero}
   ]]>
  </style>
  <linearGradient id="id0" gradientUnits="userSpaceOnUse" x1="-19520.97" y1="-20677.61" x2="344045.44" y2="-20677.61">
   <stop offset="0" style="stop-opacity:1; stop-color:#001C4E"/>
   <stop offset="0.470588" style="stop-opacity:1; stop-color:#0077E6"/>
   <stop offset="1" style="stop-opacity:1; stop-color:#0077E6"/>
  </linearGradient>
 </defs>
 <g id="Camada_x0020_1">
  <metadata id="CorelCorpID_0Corel-Layer"/>
  <g id="_1721399205584">
   <path class="fil0" d="M36884.11 6486.56c-3451.55,1471.58 -12891.46,5486.32 -12891.46,5486.32 -13113.03,5371.65 -23939.68,-3011.03 -23939.68,-3011.03l0 -8961.84 36809.95 0 21.19 6486.56 0.01 0 -0.01 -0.01z"/>
   <path class="fil1" d="M2010.87 0.05l0 8989.68c0,0 9039.21,9662.89 20532.32,4042.56l12383.03 -6279.57 -0.01 -6752.67c0,0 -30153.3,95.61 -32915.35,0l0.01 0z"/>
   <path class="fil2" d="M-0 0l0 8961.84c0,0 8785,8382.64 22331.33,3000.59l14605.71 -6011.67 0 -5950.76 -36937.04 0z"/>
  </g>
 </g>
</svg>
