<?xml version="1.0" standalone="no"?>
<!DOCTYPE svg PUBLIC "-//W3C//DTD SVG 20010904//EN"
 "http://www.w3.org/TR/2001/REC-SVG-20010904/DTD/svg10.dtd">
<svg version="1.0" xmlns="http://www.w3.org/2000/svg"
 width="1102.000000pt" height="1102.000000pt" viewBox="0 0 1102.000000 1102.000000"
 preserveAspectRatio="xMidYMid meet">
<metadata>
Created by potrace 1.11, written by Peter Selinger 2001-2013
</metadata>
<g transform="translate(0.000000,1102.000000) scale(0.100000,-0.100000)"
fill="#000000" stroke="none">
<path d="M2960 9207 c-5 -5 -46 -11 -155 -22 -27 -3 -86 -10 -130 -16 -44 -5
-102 -12 -130 -15 -27 -3 -61 -7 -75 -10 -14 -2 -45 -7 -70 -10 -91 -12 -388
-74 -500 -104 -63 -17 -122 -33 -130 -35 -108 -28 -357 -124 -508 -197 -132
-63 -402 -224 -432 -258 -3 -4 -23 -19 -45 -36 -145 -107 -335 -307 -456 -479
-124 -178 -248 -469 -284 -670 -15 -86 -27 -166 -32 -215 -12 -116 -6 -377 11
-503 11 -75 29 -176 38 -212 5 -22 11 -47 13 -55 48 -243 210 -628 384 -913
114 -185 435 -619 536 -723 11 -12 45 -50 75 -85 58 -68 411 -425 495 -500
112 -101 216 -190 315 -269 58 -47 107 -87 110 -90 3 -3 57 -44 120 -91 455
-338 898 -608 1435 -873 105 -51 213 -104 240 -116 28 -13 77 -35 110 -50 386
-176 953 -388 1350 -504 117 -34 420 -114 460 -122 25 -5 60 -13 83 -19 104
-27 589 -118 752 -140 25 -3 56 -8 70 -10 14 -2 50 -6 80 -10 30 -3 71 -8 90
-10 90 -11 120 -15 190 -20 41 -4 93 -8 115 -10 261 -24 843 -24 1070 -1 17 2
62 7 100 10 39 4 84 9 100 11 314 43 461 71 690 130 150 39 403 118 460 145
11 5 63 27 116 49 182 76 346 165 514 279 237 162 452 380 592 603 117 187
229 491 257 699 3 25 9 56 12 70 4 14 8 117 9 230 3 230 -13 374 -65 580 -28
110 -96 322 -124 385 -8 17 -28 64 -46 105 -31 72 -133 276 -185 370 -97 174
-272 441 -350 532 -11 13 -32 40 -47 60 -15 20 -33 42 -40 50 -7 7 -31 36 -53
63 -121 151 -425 466 -604 625 -47 41 -92 82 -100 90 -103 96 -375 319 -586
478 -19 14 -115 72 -120 72 -3 0 -20 14 -38 31 -17 17 -50 40 -72 51 -22 12
-58 35 -80 53 -59 47 -156 108 -386 243 -411 240 -743 411 -1090 562 -41 18
-92 40 -114 50 -272 118 -785 303 -1040 376 -33 9 -69 20 -80 24 -58 23 -431
120 -630 164 -114 26 -409 84 -454 90 -14 2 -55 9 -91 14 -62 10 -106 17 -195
28 -22 2 -56 7 -75 9 -58 7 -281 34 -345 41 -33 3 -69 9 -80 12 -24 7 -948 15
-955 9z"/>
</g>
</svg>
